<svg height="424.8366" viewBox="0 0 979.32677 424.8366" width="979.32677" xmlns="http://www.w3.org/2000/svg"><path d="m993.71816 412.83936h-574.57616a9.19888 9.19888 0 0 0 0 18.39776h16.275v220.06548a9.19888 9.19888 0 0 0 18.39776 0l.1398-220.06548h461.1557l42.52 220.06548a9.19887 9.19887 0 1 0 18.39775 0l2.67633-220.06548h15.01383a9.19888 9.19888 0 0 0 0-18.39776z" fill="#ccc" transform="translate(-110.33661 -237.5817)"/><path d="m518.73716 371.85047v38.9547h-97.59616a19.48915 19.48915 0 1 1 -1.35523-38.95474q.67739-.02358 1.35523 0z" fill="#f2f2f2" transform="translate(-110.33661 -237.5817)"/><path d="m521.13449 410.50552a1.49881 1.49881 0 0 1 -1.49822 1.49822h-100.23354a20.52615 20.52615 0 0 1 0-41.05229h100.23354a1.49827 1.49827 0 1 1 0 2.99653h-100.23354a17.52964 17.52964 0 0 0 0 35.05924h100.23354a1.49883 1.49883 0 0 1 1.49822 1.4983z" fill="#ff6363" transform="translate(-110.33661 -237.5817)"/><path d="m518.73716 380.84h-104.87811a.29966.29966 0 0 1 -.00552-.59929h104.88363a.29966.29966 0 0 1 0 .59929z" fill="#ccc" transform="translate(-110.33661 -237.5817)"/><path d="m518.73716 388.03169h-104.87811a.29966.29966 0 0 1 -.00552-.59929h104.88363a.29966.29966 0 0 1 0 .59929z" fill="#ccc" transform="translate(-110.33661 -237.5817)"/><path d="m518.73716 395.22332h-104.87811a.29966.29966 0 0 1 -.00552-.59929h104.88363a.29966.29966 0 0 1 0 .59929z" fill="#ccc" transform="translate(-110.33661 -237.5817)"/><path d="m518.73716 402.41487h-104.87811a.29966.29966 0 0 1 -.00552-.59929h104.88363a.29966.29966 0 0 1 0 .59929z" fill="#ccc" transform="translate(-110.33661 -237.5817)"/><path d="m500.33941 330.80932v38.95474h-97.59617a19.48915 19.48915 0 0 1 -1.35522-38.95474q.67737-.02358 1.35522 0z" fill="#f2f2f2" transform="translate(-110.33661 -237.5817)"/><path d="m502.73673 369.46442a1.49885 1.49885 0 0 1 -1.49822 1.49826h-100.23351a20.52614 20.52614 0 0 1 0-41.05229h100.23351a1.49826 1.49826 0 1 1 0 2.99652h-100.23351a17.52964 17.52964 0 0 0 0 35.05928h100.23351a1.49884 1.49884 0 0 1 1.49822 1.49823z" fill="#3f3d56" transform="translate(-110.33661 -237.5817)"/><path d="m500.33941 339.79886h-104.87811a.29966.29966 0 0 1 -.00553-.59929h104.88364a.29966.29966 0 0 1 0 .59929z" fill="#ccc" transform="translate(-110.33661 -237.5817)"/><path d="m500.33941 346.99054h-104.87811a.29966.29966 0 0 1 -.00553-.59929h104.88364a.29966.29966 0 0 1 0 .59929z" fill="#ccc" transform="translate(-110.33661 -237.5817)"/><path d="m500.33941 354.18217h-104.87811a.29966.29966 0 0 1 -.00553-.59929h104.88364a.29966.29966 0 0 1 0 .59929z" fill="#ccc" transform="translate(-110.33661 -237.5817)"/><path d="m500.33941 361.37376h-104.87811a.29966.29966 0 0 1 -.00553-.59929h104.88364a.29966.29966 0 0 1 0 .59929z" fill="#ccc" transform="translate(-110.33661 -237.5817)"/><path d="m613.87355 550.68347v-33.96509a5.661 5.661 0 0 0 -5.66085-5.66085h-128.7843a5.661 5.661 0 0 0 -5.66084 5.66085v33.96509z" fill="#ccc" transform="translate(-110.33661 -237.5817)"/><path d="m363.43092 325.83868h140.10602v43.87158h-140.10602z" fill="#ccc"/><path d="m473.76756 620.02887v33.96513a5.661 5.661 0 0 0 5.66084 5.66084h128.7843a5.661 5.661 0 0 0 5.66085-5.66084v-33.96513z" fill="#ccc" transform="translate(-110.33661 -237.5817)"/><circle cx="432.77633" cy="294.70402" fill="#fff" r="4.24564"/><circle cx="432.77633" cy="351.3125" fill="#fff" r="4.24564"/><circle cx="433.00385" cy="406.72228" fill="#fff" r="4.24564"/><g transform="translate(-110.33661 -237.5817)"><path d="m597.989 472.33053v38.9547h-97.59613a19.48916 19.48916 0 0 1 -1.35647-38.9547q.678-.02358 1.35647 0z" fill="#f2f2f2"/><path d="m600.38637 510.98558a1.49881 1.49881 0 0 1 -1.49822 1.49822h-100.23354a20.52615 20.52615 0 0 1 -.0247-41.05229h100.25824a1.49827 1.49827 0 1 1 0 2.99653h-100.23354a17.52963 17.52963 0 0 0 0 35.05923h100.23354a1.49885 1.49885 0 0 1 1.49822 1.49831z" fill="#3f3d56"/><path d="m597.989 481.32h-104.878a.29966.29966 0 0 1 -.00553-.59929h104.88366a.29966.29966 0 0 1 0 .59929z" fill="#ccc"/><path d="m597.989 488.51175h-104.878a.29966.29966 0 0 1 -.00553-.59929h104.88366a.29966.29966 0 0 1 0 .59929z" fill="#ccc"/><path d="m597.989 495.70338h-104.878a.29966.29966 0 0 1 -.00553-.59929h104.88366a.29966.29966 0 0 1 0 .59929z" fill="#ccc"/><path d="m597.989 502.89493h-104.878a.29966.29966 0 0 1 -.00553-.59929h104.88366a.29966.29966 0 0 1 0 .59929z" fill="#ccc"/><path d="m483.36747 317.81415h-44.46585a2.74745 2.74745 0 0 0 -1.21689.28306l-11.22288 5.61835a2.0452 2.0452 0 0 0 0 3.76443l11.22288 5.61835a2.74718 2.74718 0 0 0 1.21689.28306h44.46585a2.33381 2.33381 0 0 0 2.4628-2.16532v-11.2367a2.3338 2.3338 0 0 0 -2.4628-2.16523z" fill="#3f3d56"/><path d="m485.83027 319.97947v11.2367a2.33383 2.33383 0 0 1 -2.4628 2.16532h-8.8589v-15.56734h8.8589a2.33383 2.33383 0 0 1 2.4628 2.16532z" fill="#ff6363"/><path d="m216.78083 537.99332a35.33951 35.33951 0 0 0 34.12552-6.01134c11.95262-10.03214 15.70013-26.56 18.74934-41.864q4.50949-22.63308 9.019-45.26617l-18.88217 13.00153c-13.57891 9.34993-27.46375 18.99939-36.86572 32.54233s-13.50598 32.0302-5.9518 46.68433" fill="#e6e6e6"/><path d="m218.39489 592.79741c-1.91113-13.92071-3.87625-28.0202-2.53572-42.09016 1.19057-12.4956 5.00277-24.70032 12.764-34.70734a57.73582 57.73582 0 0 1 14.81307-13.42309c1.48131-.935 2.84468 1.41257 1.36983 2.34348a54.88844 54.88844 0 0 0 -21.71125 26.19626c-4.72684 12.02273-5.48591 25.12848-4.67135 37.90006.4926 7.72345 1.53656 15.39627 2.58859 23.05926a1.40615 1.40615 0 0 1 -.94781 1.66928 1.3653 1.3653 0 0 1 -1.6693-.94781z" fill="#f2f2f2"/><path d="m236.80246 568.16434a26.01425 26.01425 0 0 0 22.6665 11.69871c11.47417-.54466 21.04-8.55293 29.651-16.15584l25.46969-22.48783-16.85671-.80672c-12.12234-.58011-24.55745-1.12124-36.10356 2.617s-22.19457 12.73508-24.30583 24.68624" fill="#e6e6e6"/><path d="m212.99392 600.79976c9.19853-16.27621 19.86805-34.36538 38.93262-40.14695a43.445 43.445 0 0 1 16.37566-1.69081c1.73863.14991 1.30448 2.82994-.431 2.6803a40.36111 40.36111 0 0 0 -26.133 6.91386c-7.36852 5.01554-13.10573 11.98848-17.96161 19.383-2.97439 4.52936-5.63867 9.25082-8.30346 13.966-.85161 1.50687-3.34078.41915-2.47922-1.10534z" fill="#f2f2f2"/><path d="m198.25523 617.93168a19.69836 19.69836 0 0 1 12.0709-16.49847v-9.40956h15.782v9.70608a19.68812 19.68812 0 0 1 11.41362 16.202l3.711 43.13835h-46.68858z" fill="#f2f2f2"/><path d="m734.973 411.955-4.69488-1.97685-3.22067-23.53551h-42.889l-3.491 23.43936-4.20031 2.10013a.99744.99744 0 0 0 .44611 1.88955h57.66283a.99739.99739 0 0 0 .38692-1.91668z" fill="#e6e6e6"/><path d="m811.1898 389.574h-210.68288a4.174 4.174 0 0 1 -4.16467-4.174v-29.70908h219.01221v29.70908a4.17408 4.17408 0 0 1 -4.16466 4.174z" fill="#ccc"/><path d="m815.57469 369.73213h-219.42469v-127.11876a5.0375 5.0375 0 0 1 5.03186-5.03167h209.361a5.03755 5.03755 0 0 1 5.03191 5.03167z" fill="#3f3d56"/><path d="m802.46932 360.50584h-193.214a3.88344 3.88344 0 0 1 -3.87919-3.87908v-105.93969a3.88365 3.88365 0 0 1 3.87919-3.87932h193.214a3.88366 3.88366 0 0 1 3.8792 3.87932v105.93969a3.88345 3.88345 0 0 1 -3.8792 3.87908z" fill="#fff"/><path d="m751.57964 397.88662a11.6159 11.6159 0 0 1 17.666 2.27241l26.13446-4.64642 6.69716 15.19317-36.99908 6.04328a11.67883 11.67883 0 0 1 -13.49855-18.86244z" fill="#ffb6b6"/><path d="m775.77611 417.286 27.24571-.33963 3.44882-.04668 55.43253-.69843s15.05312-14.3609 28.16068-29.1465l-1.83719-13.28833a54.29159 54.29159 0 0 0 -18.20366-33.61453c-18.77312 12.5441-29.66 37.37369-29.66 37.37369l-34.37018 8.22071-3.43848.82227-21.35608 5.10326z" fill="#ff6363"/><path d="m915.25011 498.96167h-50.85762c0 2.17915-55.59414 3.94772-55.59414 3.94772a20.30858 20.30858 0 0 0 -3.33166 3.15818 19.59694 19.59694 0 0 0 -4.58 12.63271v3.15818a19.74588 19.74588 0 0 0 19.73861 19.73861h94.62478a19.75579 19.75579 0 0 0 19.73862-19.73861v-3.15818a19.76607 19.76607 0 0 0 -19.73859-19.73861z" fill="#e4e4e4"/></g><path d="m747.4019 303.23122h20.52816v118.48951h-20.52816z" fill="#e4e4e4"/><path d="m799.31222 658.58132c0 2.218 31.10721.858 69.47992.858s69.47991 1.36012 69.47991-.858-31.1072-19.807-69.47991-19.807-69.47992 17.58891-69.47992 19.807z" fill="#e4e4e4" transform="translate(-110.33661 -237.5817)"/><path d="m675.186 407.461-15.278-.001-7.268-58.929 22.548.001z" fill="#ffb6b6"/><path d="m789.41863 659.852-49.2623-.00183v-.62309a19.17528 19.17528 0 0 1 19.17426-19.17395h.00122l30.08773.00122z" fill="#2f2e41" transform="translate(-110.33661 -237.5817)"/><path d="m630.031 407.461-15.278-.001-7.268-58.929 22.548.001z" fill="#ffb6b6"/><path d="m744.2636 659.852-49.2623-.00183v-.62309a19.1753 19.1753 0 0 1 19.17426-19.17395h.00122l30.08773.00122z" fill="#2f2e41" transform="translate(-110.33661 -237.5817)"/><circle cx="766.88656" cy="41.63615" fill="#ffb6b6" r="26.56401"/><path d="m920.21655 461.22417s8.91308 47.1307-24.99958 53.13247-82.86639 10.21993-82.86639 10.21993l-21.98352 102.56667-29.53443-2.63675s3.928-123.46737 13.5876-133.127 70.71212-38.58282 70.71212-38.58282z" fill="#2f2e41" transform="translate(-110.33661 -237.5817)"/><path d="m853.98286 441.47135-14.83186 14.87927s-107.0941 17.25-111.22553 41.9852c-6.23747 37.34427-13.60493 118.552-13.60493 118.552l32.1988-2.41491 12.62647-92.31123 51.5182-11.71874 58.61328-31.94294z" fill="#2f2e41" transform="translate(-110.33661 -237.5817)"/><path d="m902.78526 263.36115c-2.6223-4.94751-5.95413-14.80785-11.24679-16.63657a42.07731 42.07731 0 0 0 -9.05841-1.92972l-8.99618 3.46009 4.89616-3.808q-1.42988-.08519-2.85817-.13928l-6.0699 2.33453 3.10542-2.41532c-5.65883-.05808-11.5.53031-15.88468 3.9752-3.73817 2.93677-7.44169 14.06185-8.04057 18.77753a35.9171 35.9171 0 0 0 .6603 13.53055l1.53716 1.46166a18.85936 18.85936 0 0 0 1.206-3.83883 18.18056 18.18056 0 0 1 8.70263-11.80641l.08368-.0472c2.5782-1.451 5.7065-1.3841 8.66308-1.27769l14.04158.50527c3.37829.12158 7.01608.33533 9.64978 2.45443a15.888 15.888 0 0 1 3.85826 5.58929c1.30868 2.6414 3.8661 12.60418 3.8661 12.60418s1.44689-1.88062 2.1404-.48092a48.39766 48.39766 0 0 0 2.01437-11.23347 22.00877 22.00877 0 0 0 -2.27022-11.07932z" fill="#2f2e41" transform="translate(-110.33661 -237.5817)"/><path d="m995.69426 290.88349a11.61582 11.61582 0 0 0 -10.51326 14.37787l-21.3614 15.75722 6.40951 15.31674 29.8539-22.67594a11.67883 11.67883 0 0 0 -4.38876-22.77589z" fill="#ffb6b6" transform="translate(-110.33661 -237.5817)"/><path d="m992.25627 323.052-53.551 59.4744s-25.60913-8.19816-45.41466-17.08624l-8.8977-27.32787a54.34329 54.34329 0 0 1 -2.60112-19.66442c27.45606-7.306 59.391 19.87863 59.391 19.87863l40.08517-31.39877z" fill="#ff6363" transform="translate(-110.33661 -237.5817)"/><path d="m867.301 465.6169c-9.554-3.30029-19.43312-6.71277-30.08912-7.99385l-.45773-.05533.12632-.443c11.03073-38.7308 8.27761-63.50657 2.87195-100.72306a37.59072 37.59072 0 0 1 21.5483-39.50121l.06542-.02958 30.43436-1.93391.06935-.00423 22.13437 6.50989a15.18313 15.18313 0 0 1 10.86724 14.83111c-.23987 12.23937.26868 25.9043.80711 40.37114 1.20787 32.45569 2.45686 66.01647-4.63045 87.79166l-.03718.11412-.09462.07416a36.09883 36.09883 0 0 1 -23.08086 8.10758c-9.93489-.00004-20.0736-3.50205-30.53446-7.11549z" fill="#ff6363" transform="translate(-110.33661 -237.5817)"/><path d="m1088.24817 662.4183h-976.49634a1.41521 1.41521 0 1 1 0-2.83042h976.49634a1.41521 1.41521 0 1 1 0 2.83042z" fill="#ccc" transform="translate(-110.33661 -237.5817)"/></svg>